<svg width="24" height="24" class="ink-icon" xmlns="http://www.w3.org/2000/svg" xmlns:xlink="http://www.w3.org/1999/xlink"><defs><path d="M10.1.74C4.935.74.74 4.935.74 10.1c0 5.167 4.194 9.36 9.36 9.36 5.167 0 9.36-4.193 9.36-9.36 0-5.166-4.193-9.36-9.36-9.36ZM10 17.408c-4.083 0-7.407-3.324-7.407-7.407S5.917 2.593 10 2.593 17.407 5.917 17.407 10 14.083 17.407 10 17.407Z" id="a"/></defs><g fill="none" fill-rule="evenodd"><path d="M0 0h24v24H0z"/><g transform="translate(2 2)"><mask id="b" fill="#fff"><use xlink:href="#a"/></mask><g mask="url(#b)"><path fill="#5F6368" d="M-1.111 0H21.11v22.222H-1.111z"/></g></g></g></svg>