<svg width="24" height="24" class="ink-icon" xmlns="http://www.w3.org/2000/svg" xmlns:xlink="http://www.w3.org/1999/xlink"><defs><path d="M17.65 14c-.83 2.33-3.04 4-5.66 4-2.61 0-4.82-1.67-5.65-4h2.21c.69 1.19 1.97 2 3.44 2 1.48 0 2.75-.81 3.45-2h2.21Zm-2.15-3c.83 0 1.5-.67 1.5-1.5S16.33 8 15.5 8 14 8.67 14 9.5s.67 1.5 1.5 1.5Zm-7 0c.83 0 1.5-.67 1.5-1.5S9.33 8 8.5 8 7 8.67 7 9.5 7.67 11 8.5 11ZM22 12c0 5.52-4.48 10-10.01 10C6.47 22 2 17.52 2 12S6.47 2 11.99 2C17.52 2 22 6.48 22 12Zm-2 0c0-4.42-3.58-8-8-8s-8 3.58-8 8 3.58 8 8 8 8-3.58 8-8Z" id="a"/></defs><g fill="none" fill-rule="evenodd"><path d="M0 0h24v24H0z"/><mask id="b" fill="#fff"><use xlink:href="#a"/></mask><g mask="url(#b)" fill="#5F6368"><path d="M0 0h24v24H0z"/></g></g></svg>