<svg width="24" height="24" class="chromeapp-paint-icon ink-icon" xmlns="http://www.w3.org/2000/svg" xmlns:xlink="http://www.w3.org/1999/xlink"><defs><path d="M16.64 2.75 18 4.11l-7.79 7.79-1.36-1.36 7.79-7.79zm0-2c-.51 0-1.02.2-1.41.59L7.44 9.13c-.78.78-.78 2.05 0 2.83l1.36 1.36c.39.39.9.59 1.41.59.51 0 1.02-.2 1.41-.59l7.79-7.79c.78-.78.78-2.05 0-2.83l-1.35-1.35c-.39-.4-.9-.6-1.42-.6zM5 12.25c-1.66 0-3 1.34-3 3 0 1.31-1.16 2-2 2 .92 1.22 2.49 2 4 2 2.21 0 4-1.79 4-4 0-1.66-1.34-3-3-3z" id="a"/></defs><g fill="none" fill-rule="evenodd"><path d="M0 0h24v24H0z"/><g transform="translate(2 2)"><mask id="b" fill="#fff"><use xlink:href="#a"/></mask><g mask="url(#b)"><path fill="#5F6368" d="M-2-2h24v24H-2z"/></g></g></g></svg>